<?xml version="1.0" encoding="UTF-8"?>
<svg id="Layer_2" data-name="Layer 2" xmlns="http://www.w3.org/2000/svg" xmlns:xlink="http://www.w3.org/1999/xlink" viewBox="0 0 189.51 110.5">
  <defs>
    <style>
      .cls-1 {
        font-family: CenturyGothic, 'Century Gothic';
        font-size: 16.64px;
      }

      .cls-1, .cls-2 {
        fill: #98761e;
      }

      .cls-3 {
        fill: #5a3769;
      }

      .cls-3, .cls-4, .cls-5, .cls-2 {
        stroke-width: 0px;
      }

      .cls-4 {
        fill: url(#radial-gradient-2);
      }

      .cls-5 {
        fill: url(#radial-gradient);
      }
    </style>
    <radialGradient id="radial-gradient" cx="30.86" cy="56.08" fx="30.86" fy="56.08" r="50.15" gradientUnits="userSpaceOnUse">
      <stop offset="0" stop-color="#fff"/>
      <stop offset=".09" stop-color="#fcfbf7"/>
      <stop offset=".21" stop-color="#f5f1e4"/>
      <stop offset=".27" stop-color="#f2ecd9"/>
      <stop offset=".36" stop-color="#ebe3cb"/>
      <stop offset=".52" stop-color="#dacda8"/>
      <stop offset=".73" stop-color="#bea96e"/>
      <stop offset=".99" stop-color="#997720"/>
      <stop offset="1" stop-color="#98761e"/>
    </radialGradient>
    <radialGradient id="radial-gradient-2" cx="31.61" cy="66.41" fx="31.61" fy="66.41" r="38.36" xlink:href="#radial-gradient"/>
  </defs>
  <g id="Layer_1-2" data-name="Layer 1">
    <g>
      <g>
        <path class="cls-3" d="M125.58,52.45c0,13.55-7.21,24.83-16.91,28.46-1.87.64-3.92,1.21-6.5,1.21s-4.81-.56-6.59-1.21c-9.79-3.63-16.91-14.92-16.91-28.46,0-15.88,9.97-28.87,22.52-29.59h.98c2.58,0,4.63.56,6.5,1.21,9.7,3.63,16.91,14.92,16.91,28.38ZM115.79,69.3v-33.78c0-.16-.09-.73-.27-1.77-.18-.73-.27-1.45-.62-2.42-1.87-4.43-6.41-7.66-11.84-7.98h-.89s-.89,0-2.14.24c-.71.08-1.69.24-2.76.56-4.89,1.69-8.45,5.89-8.81,10.8v34.43c0,.32.09.97.27,1.85.09.73.27,1.53.62,2.42,1.78,4.43,6.32,7.98,11.84,7.98h1.87c5.43-.32,9.97-3.55,11.84-7.98.71-1.93.89-3.63.89-4.11v-.24Z"/>
        <path class="cls-3" d="M140.88,23.02v58.38s0,.16-.09.16c0,.08-.09.08-.09.08h-9.35s-.09,0-.09-.08c-.18,0-.18-.16-.18-.16V23.02s0-.08.18-.08c0-.08.09-.08.09-.08h9.35s.09,0,.09.08c.09,0,.09.08.09.08Z"/>
        <path class="cls-3" d="M184.14,65.11v16.77s0,.16-.09.16c0,.08-.18.08-.18.08h-9.35s-.09,0-.09-.08c-.09,0-.09-.16-.09-.16v-5.64c-.09.56-.36,1.05-.71,1.53-1.25,2.1-3.56,4.35-8.28,4.35h-.18c-10.32,0-18.69-7.66-18.69-17.01s8.45-17.09,18.87-17.09c3.2,0,6.32.81,8.99,2.18v-27.17s0-.08.09-.08c0-.08.09-.08.09-.08h9.35s.18,0,.18.08c.09,0,.09.08.09.08v42.09ZM174.34,65.11v-8.39c0-4.51-4-8.14-8.99-8.14s-9.08,3.63-9.08,8.14v17.09c0,.24.18.56.18.97.09.4.18.89.44,1.45,1.16,3.14,4.54,5.4,8.46,5.4,4.54,0,6.76-2.02,7.83-4.03.98-1.85,1.16-3.79,1.16-4.03v-8.47Z"/>
        <path class="cls-5" d="M54.6,22.89c0,4.93,3.98,8.75,8.75,8.75,1.2,0,2.33-.24,3.35-.66.49-.2.98.27.79.77-1.54,4.01-4.5,8.08-11.29,11.71,0,0-.4.29-.14.67.26.38.73.06.73.06,12.82-6.61,15.35-14.85,15.35-20.88,0-.73-.08-1.41-.21-2.06-.04-.21-.11-.41-.16-.61-.1-.36-.19-.72-.32-1.05-.06-.14-.14-.27-.2-.41-.17-.37-.35-.74-.57-1.07-.14-.21-.3-.39-.45-.59-.15-.18-.28-.38-.45-.55-1.58-1.73-3.85-2.84-6.43-2.84-3.05,0-5.76,1.65-7.23,4.04-.11.18-.81,1.18-1.22,2.48-.26.85-.31,2.23-.31,2.23Z"/>
        <g>
          <path class="cls-2" d="M80.11,104.08c-.39,0-.72-.09-.98-.27s-.42-.42-.46-.72c0-.3.02-.52.07-.65.83-2.05,2.19-3.64,4.07-4.79.22-.16.55-.34.98-.53.7-.35,1.42-.53,2.17-.53.66,0,1.31.16,1.97.49.31.14.5.2.59.2.13,0,.33-.11.59-.33.35-.25.83-.64,1.44-1.19l.85-.74.98-.86c.39-.25.79-.31,1.18-.2.44.16.55.44.33.82l-.85,1.11c-1.18,1.45-2.06,2.81-2.63,4.09-.44.98-.66,1.72-.66,2.21,0,.14.07.24.2.31s.28.08.46.02c.52-.14.96-.27,1.31-.38.28-.09.56-.19.83-.3.84-.35,1.53-.67,2.07-.96.61-.3,1.16-.6,1.64-.9l1.58-.86c.7-.35,1.07-.55,1.12-.57.26-.14.53-.12.79.04.31.14.39.34.26.61,0,.03-.13.12-.39.29-2.5,1.55-4.75,2.71-6.76,3.48-1.23.52-2.28.78-3.15.78-1.09,0-1.64-.39-1.64-1.19,0-.15.01-.34.04-.55.1-.75.31-1.48.59-2.19.07-.16.14-.34.22-.54-.53.11-.91.27-1.15.47-.24.2-.41.33-.49.39-1.8,1.34-3.33,2.35-4.6,3.03-.66.35-1.25.61-1.77.78-.26.08-.53.12-.79.12ZM81.29,102.48c1.66-.87,3.55-2.14,5.65-3.8.09-.03.17-.1.26-.2.04-.05.07-.12.07-.2,0-.16-.11-.29-.33-.37-.31-.14-.61-.2-.92-.2-.09,0-.26.03-.53.08-.39.08-.75.22-1.05.41-2.06,1.12-3.35,2.56-3.87,4.34.09.03.13.06.13.08.22.03.42-.01.59-.12Z"/>
          <path class="cls-2" d="M97.97,110.5c-.7,0-1.27-.29-1.71-.86-.26-.38-.39-.9-.39-1.55s.09-1.4.26-2.17c.18-.76.29-1.24.33-1.43.7-2.67,2.14-5.89,4.33-9.65.22-.44.46-.85.72-1.23l.53-.9c.13-.22.2-.39.2-.53s-.1-.23-.3-.27c-.2-.04-.51-.05-.95-.02l-4.96.38c-.18.01-.37.03-.55.06-.14.02-.29.04-.47.05-.26.03-.59.04-.98.04-.31,0-.55-.01-.72-.04-.26-.05-.42-.14-.46-.25v-.12c0-.16.11-.27.33-.33.38-.07.89-.15,1.53-.24.2-.03.4-.05.6-.07,1.39-.11,3.63-.28,6.73-.51.79-.03,1.34-.26,1.64-.7l1.45-2c.22-.3.45-.59.7-.86.61-.67,1.1-1.19,1.47-1.55.17-.25.39-.43.66-.55s.5-.18.72-.18c.17,0,.32.04.43.12.11.08.16.19.16.33,0,.16-.11.41-.33.74-.35.55-1.16,1.64-2.43,3.27-.04.06-.13.17-.26.35-.13.18-.2.39-.2.63.44.06.72.08.85.08l.72-.04c2.06-.14,4.03-.25,5.91-.33l6.04-.37c.53-.03.98-.03,1.38-.02.39.01.72.02.98.02s.44.14.53.41c0,.22-.13.35-.39.41-.44.06-1.01.11-1.71.16l-14.12.78c-.48.03-.88.1-1.18.22-.31.12-.55.32-.72.59-.79,1.12-1.84,2.91-3.15,5.38-1.31,2.47-2.19,4.33-2.63,5.58-.44,1.09-.77,2.45-.98,4.09,0,.14-.02.27-.07.41s-.07.27-.07.41c0,.44.24.78.72,1.02.44-.03.79-.12,1.05-.27.26-.15.51-.31.75-.49.24-.18.4-.31.49-.39,1.36-1.06,3.17-2.6,5.45-4.62.35-.3,1.14-.97,2.36-2.02,1.22-1.05,2.1-1.75,2.63-2.11.04-.03.19-.14.43-.35.24-.2.58-.36,1.02-.47.26-.05.5-.04.72.04.35.16.42.37.2.61,0,.08-.07.16-.2.25-.83.6-2.47,1.95-4.92,4.05-.39.33-1.38,1.17-2.95,2.52-1.58,1.35-3.02,2.49-4.33,3.42-.44.38-1.05.68-1.84.9-.35.11-.7.16-1.05.16Z"/>
          <path class="cls-2" d="M110.94,105.49c-.59-.26-1-.63-1.22-1.13-.31-.54-.44-1.01-.39-1.39-.04-.49.11-1.12.46-1.88.83-1.64,2.1-2.96,3.81-3.97.66-.38,1.28-.68,1.87-.88.59-.2,1.26-.31,2-.31.66,0,1.17.14,1.54.41.37.27.51.64.43,1.1-.18.82-.72,1.53-1.64,2.13-1.1.74-2.1,1.32-3.02,1.74-.92.42-1.97.68-3.15.76-.26.03-.44.15-.53.37-.04.11-.07.27-.07.49,0,.38.09.7.26.94.26.76,1.01,1.08,2.23.94.79-.11,1.73-.33,2.82-.65,1.71-.57,3.28-1.27,4.73-2.09l4.66-2.74,1.25-.74c.35-.19.68-.19.98,0,.31.19.37.4.2.61-.09.11-.26.25-.53.41-2.63,1.66-4.82,2.95-6.57,3.85-1.53.79-3.09,1.42-4.66,1.88-1.31.35-2.43.53-3.35.53-.83,0-1.54-.13-2.13-.39ZM117.08,98.35c.39-.38.59-.7.59-.94-.04-.27-.24-.38-.59-.33-.39.03-.79.12-1.18.29-1.75.71-3.06,1.79-3.94,3.23,0,.14.04.2.13.2.22.06.35.07.39.04,2.23-.74,3.76-1.57,4.6-2.5Z"/>
          <path class="cls-2" d="M140.98,99.04c0,.19-.09.35-.26.49-.09.14-.42.48-.98,1.02-.88.68-2.41,1.96-4.6,3.84l-3.87,3.27c-.88.71-1.71,1.25-2.5,1.64-.61.3-1.16.45-1.64.45-.79,0-1.38-.35-1.77-1.06-.18-.25-.28-.46-.33-.65-.04-.35-.07-.8-.07-1.35.04-1.66.42-3.52,1.12-5.56.13-.49.2-.75.2-.78,0-.25-.11-.45-.33-.61-.09-.11-.13-.18-.13-.2,0-.14.11-.27.33-.41.7-.55,1.31-1.39,1.84-2.54,2.1-4.09,4.51-7.51,7.22-10.27.31-.3.9-.86,1.77-1.68.13-.11.52-.37,1.18-.78.48-.25.94-.3,1.38-.16.48.14.68.41.59.82-.18.55-.35.93-.52,1.15-.31.49-.81,1.23-1.51,2.21-2.63,3.25-5.23,6.12-7.81,8.63-.61.6-1.07,1.2-1.38,1.8-1.1,2.43-1.82,4.88-2.17,7.36-.09.55-.13.95-.13,1.23,0,.49.09.91.26,1.27.09.16.23.27.43.33.2.05.38.03.56-.08.96-.6,1.55-1,1.77-1.19,2.06-1.64,5.16-4.25,9.33-7.85.31-.33.59-.57.85-.74.17-.11.46-.12.85-.04.31.08.42.23.33.45ZM132.31,92.54c0,.08.04.2.13.37v.04-.04h.07l3.81-4.62,1.77-2.21c-.18-.05-.31-.08-.39-.08-.18,0-.39.11-.66.33-1.84,1.88-3.35,3.79-4.53,5.73-.13.16-.2.33-.2.49ZM132.48,92.87s.03.01.03.04h-.07s.01-.04.03-.04ZM138.03,85.95l.07.12v-.04l-.07-.08Z"/>
          <path class="cls-2" d="M140.52,106.12c-.61,0-1.15-.11-1.61-.33-.46-.22-.78-.5-.95-.86-.18-.27-.26-.76-.26-1.47.44-2.15,1.07-3.87,1.9-5.15.35-.49.68-.83.98-1.02.31-.16.63-.18.98-.04.13.03.23.09.29.18.07.1.08.18.03.27l-.39.61c-.57.74-1,1.51-1.28,2.31-.28.81-.56,1.75-.82,2.84v.29c0,.19.04.45.13.78.04.19.2.33.46.43s.55.12.85.06c.44-.03.84-.1,1.21-.22.37-.12.8-.31,1.28-.55,1.49-.74,3.11-1.73,4.86-2.99l1.77-1.31c.53-.44.94-.76,1.25-.98.17-.14.48-.31.92-.53.22-.14.48-.12.79.04.26.11.35.27.26.49-.09.19-.22.34-.39.45-1.44,1.17-2.73,2.15-3.84,2.95-1.12.79-2.33,1.53-3.64,2.21-.79.44-1.51.78-2.17,1.02-.66.25-1.31.41-1.97.49-.18.03-.4.04-.66.04ZM142.1,95.69c-.26,0-.48-.08-.66-.23-.17-.15-.28-.33-.33-.55,0-.49.4-.74,1.18-.74.35,0,.65.06.89.18.24.12.38.28.43.47,0,.22-.14.42-.43.59s-.6.27-.95.27h-.13Z"/>
          <path class="cls-2" d="M150.86,105.49c-.59-.26-1-.63-1.21-1.13-.31-.54-.44-1.01-.39-1.39-.04-.49.11-1.12.46-1.88.83-1.64,2.1-2.96,3.81-3.97.66-.38,1.28-.68,1.87-.88.59-.2,1.26-.31,2-.31.66,0,1.17.14,1.54.41.37.27.51.64.43,1.1-.18.82-.72,1.53-1.64,2.13-1.1.74-2.1,1.32-3.02,1.74-.92.42-1.97.68-3.15.76-.26.03-.44.15-.53.37-.04.11-.07.27-.07.49,0,.38.09.7.26.94.26.76,1.01,1.08,2.23.94.79-.11,1.73-.33,2.82-.65,1.71-.57,3.28-1.27,4.73-2.09l4.66-2.74,1.25-.74c.35-.19.68-.19.98,0,.31.19.37.4.2.61-.09.11-.26.25-.52.41-2.63,1.66-4.82,2.95-6.57,3.85-1.53.79-3.09,1.42-4.66,1.88-1.31.35-2.43.53-3.35.53-.83,0-1.54-.13-2.13-.39ZM157,98.35c.39-.38.59-.7.59-.94-.04-.27-.24-.38-.59-.33-.4.03-.79.12-1.18.29-1.75.71-3.07,1.79-3.94,3.23,0,.14.04.2.13.2.22.06.35.07.4.04,2.23-.74,3.76-1.57,4.6-2.5Z"/>
          <path class="cls-2" d="M163.57,107.64c0-.11-.01-.27-.03-.49-.02-.22-.01-.41.03-.57.57-2.51,1.53-4.69,2.89-6.55l2.1-3.07c.09-.08.16-.17.23-.27.07-.1.16-.2.3-.31.22-.14.48-.18.79-.12.39.08.55.22.46.41,0,.27-.11.57-.33.9-.35.55-.92,1.36-1.71,2.45-.88,1.28-1.57,2.54-2.1,3.76-.18.38-.26.66-.26.82s.07.33.2.49h-.07l.07.04,2.56-3.23c.96-1.09,2.01-1.98,3.15-2.66.53-.33,1.03-.59,1.51-.78.26-.08.52-.12.79-.12.53,0,.94.16,1.25.49.13.14.25.29.36.47.11.18.23.33.36.47.48.49,1.01.74,1.58.74.31,0,.68-.07,1.12-.2,1.23-.41,2.39-.93,3.48-1.55.26-.16.55-.3.85-.41.04-.03.13-.04.26-.04.17,0,.35.04.53.12.26.16.33.33.2.49-.18.25-.37.42-.59.53-1.1.74-2.54,1.38-4.33,1.92-.44.14-.94.2-1.51.2-1.1,0-1.99-.3-2.69-.9l-.98-.98c-.39,0-.77.14-1.12.41-1.05.66-2.04,1.53-2.95,2.62l-1.25,1.55c-.18.27-.81,1.08-1.9,2.41-.39.49-.79.91-1.18,1.27-.22.22-.52.33-.92.33-.66,0-1.03-.22-1.12-.65Z"/>
        </g>
        <path class="cls-4" d="M62.86,66.11h-31.19c-.24,0-.48.12-.48.24,0,.24.24.36.48.36h17.9c.25,0,.46.2.46.45v24.62c0,.72-.24,3.24-1.2,6.12-2.52,6.6-8.64,11.4-15.96,11.88h-2.52c-7.44,0-13.56-5.28-15.96-11.88-.48-1.32-.72-2.52-.84-3.6-.24-1.32-.36-2.4-.36-2.76v-50.5c0-.72.24-3.24,1.2-6.12,2.4-6.6,8.76-11.4,16.08-11.88h10.87v-.72h-9.73c-3.57,0-6.43.84-8.82,1.8C9.6,29.52,0,46.31,0,66.35s9.6,36.95,22.79,42.35c2.4.96,5.28,1.8,8.88,1.8s6.24-.72,8.76-1.8c2.42-1.12,4.83-2.49,7.07-4.25,1.03-.8,2.53-.12,2.53,1.19v4.5l12.84.36q.12,0,.36-.12v-44.27h-.36Z"/>
      </g>
      <text class="cls-1" transform="translate(85.24 14.29)"><tspan x="0" y="0">RESTORED BY</tspan></text>
    </g>
  </g>
</svg>