<?xml version="1.0" encoding="UTF-8"?>
<svg id="Layer_2" data-name="Layer 2" xmlns="http://www.w3.org/2000/svg" xmlns:xlink="http://www.w3.org/1999/xlink" viewBox="0 0 429.09 93.65">
  <defs>
    <style>
      .cls-1 {
        stroke: #0062a0;
      }

      .cls-1, .cls-2, .cls-3, .cls-4 {
        stroke-miterlimit: 10;
      }

      .cls-1, .cls-5 {
        fill: #00629f;
      }

      .cls-6 {
        fill: #f79e1b;
      }

      .cls-6, .cls-7, .cls-8, .cls-9, .cls-10, .cls-11, .cls-12, .cls-13, .cls-14, .cls-15, .cls-16, .cls-17, .cls-18, .cls-19, .cls-20, .cls-21, .cls-22, .cls-23, .cls-5, .cls-24, .cls-25, .cls-26, .cls-27, .cls-28, .cls-29, .cls-30, .cls-31 {
        stroke-width: 0px;
      }

      .cls-7, .cls-32 {
        fill: url(#linear-gradient);
      }

      .cls-8, .cls-33, .cls-34, .cls-35 {
        fill: #000;
      }

      .cls-9 {
        fill: #faac39;
      }

      .cls-10 {
        fill: url(#linear-gradient-6);
      }

      .cls-36 {
        font-family: Verdana-Bold, Verdana;
        font-size: 10.05px;
        font-weight: 700;
      }

      .cls-36, .cls-24, .cls-4 {
        fill: #fff;
      }

      .cls-11 {
        fill: url(#linear-gradient-2);
        mix-blend-mode: multiply;
      }

      .cls-11, .cls-12, .cls-17, .cls-22, .cls-27 {
        fill-rule: evenodd;
      }

      .cls-37 {
        letter-spacing: .01em;
      }

      .cls-12 {
        fill: url(#linear-gradient-3);
      }

      .cls-33 {
        font-family: MyriadPro-Regular, 'Myriad Pro';
        font-size: 5.67px;
      }

      .cls-13, .cls-27 {
        fill: #006cb5;
      }

      .cls-14 {
        fill: url(#linear-gradient-5);
      }

      .cls-34 {
        font-size: 9.26px;
      }

      .cls-34, .cls-35 {
        font-family: BookAntiqua, 'Book Antiqua';
      }

      .cls-15 {
        fill: #ff5f00;
      }

      .cls-16 {
        fill: #e21836;
      }

      .cls-17 {
        fill: #252122;
      }

      .cls-18 {
        fill: #f8a020;
      }

      .cls-38 {
        letter-spacing: 0em;
      }

      .cls-2 {
        stroke: #000;
        stroke-width: .5px;
      }

      .cls-2, .cls-3 {
        fill: none;
      }

      .cls-19 {
        fill: #eb001b;
      }

      .cls-3, .cls-4 {
        stroke: #00629f;
      }

      .cls-20 {
        fill: #110f0d;
      }

      .cls-21 {
        fill: #5ec6c6;
      }

      .cls-22 {
        fill: #231f20;
      }

      .cls-39 {
        clip-path: url(#clippath);
      }

      .cls-23 {
        fill: #00447c;
      }

      .cls-35 {
        font-size: 5.25px;
      }

      .cls-40 {
        filter: url(#luminosity-noclip);
      }

      .cls-41 {
        mask: url(#mask-1);
      }

      .cls-42 {
        mask: url(#mask);
      }

      .cls-25 {
        fill: #6c6bbd;
      }

      .cls-26 {
        fill: #007b84;
      }

      .cls-28 {
        fill: url(#linear-gradient-4);
      }

      .cls-29 {
        fill: #0099df;
      }

      .cls-30 {
        fill: #d32011;
      }

      .cls-31 {
        fill: #fefefe;
      }
    </style>
    <linearGradient id="linear-gradient" x1="275.35" y1="11.79" x2="278.97" y2="19.55" gradientUnits="userSpaceOnUse">
      <stop offset=".38" stop-color="#e45e26"/>
      <stop offset="1" stop-color="#f8a020"/>
    </linearGradient>
    <clipPath id="clippath">
      <ellipse class="cls-7" cx="277.16" cy="15.67" rx="4.27" ry="4.28"/>
    </clipPath>
    <filter id="luminosity-noclip" x="272.7" y="11.18" width="10.84" height="11.03" color-interpolation-filters="sRGB" filterUnits="userSpaceOnUse">
      <feFlood flood-color="#fff" result="bg"/>
      <feBlend in="SourceGraphic" in2="bg"/>
    </filter>
    <filter id="luminosity-noclip-2" x="272.7" y="-4608" width="10.84" height="32766" color-interpolation-filters="sRGB" filterUnits="userSpaceOnUse">
      <feFlood flood-color="#fff" result="bg"/>
      <feBlend in="SourceGraphic" in2="bg"/>
    </filter>
    <mask id="mask-1" x="272.7" y="-4608" width="10.84" height="32766" maskUnits="userSpaceOnUse"/>
    <linearGradient id="linear-gradient-2" x1="-1641.19" y1="-689.54" x2="-1636.33" y2="-679.11" gradientTransform="translate(1900.37 -503.78) rotate(-41.47) scale(.95 1)" gradientUnits="userSpaceOnUse">
      <stop offset=".32" stop-color="#000"/>
      <stop offset="1" stop-color="#000"/>
    </linearGradient>
    <mask id="mask" x="272.7" y="11.18" width="10.84" height="11.03" maskUnits="userSpaceOnUse">
      <g class="cls-40">
        <g class="cls-41">
          <path class="cls-11" d="M281.91,13.34c2.14,2.42,2.17,5.88.07,7.73-2.1,1.85-5.53,1.39-7.66-1.02s-2.17-5.88-.07-7.73c2.1-1.85,5.53-1.39,7.66,1.02Z"/>
        </g>
      </g>
    </mask>
    <linearGradient id="linear-gradient-3" x1="-1641.19" y1="-689.54" x2="-1636.33" y2="-679.11" gradientTransform="translate(1900.37 -503.78) rotate(-41.47) scale(.95 1)" gradientUnits="userSpaceOnUse">
      <stop offset=".32" stop-color="#e45e26"/>
      <stop offset="1" stop-color="#f8a020"/>
    </linearGradient>
    <linearGradient id="linear-gradient-4" x1="268.38" y1="72.5" x2="282.38" y2="72.5" gradientUnits="userSpaceOnUse">
      <stop offset="0" stop-color="#8a2643"/>
      <stop offset="1" stop-color="#ee3666"/>
    </linearGradient>
    <linearGradient id="linear-gradient-5" x1="284.87" y1="72.5" x2="298.87" y2="72.5" gradientUnits="userSpaceOnUse">
      <stop offset="0" stop-color="#258255"/>
      <stop offset="1" stop-color="#82c66f"/>
    </linearGradient>
    <linearGradient id="linear-gradient-6" x1="251.98" y1="72.5" x2="265.98" y2="72.5" gradientUnits="userSpaceOnUse">
      <stop offset="0" stop-color="#394a9f"/>
      <stop offset="1" stop-color="#3985c6"/>
    </linearGradient>
  </defs>
  <g id="Layer_1-2" data-name="Layer 1">
    <g>
      <g>
        <path class="cls-8" d="M9.35,38.79v-2.4c0-.92-.56-1.52-1.48-1.52-.48,0-1,.16-1.36.68-.28-.44-.68-.68-1.28-.68-.46-.02-.89.19-1.16.56v-.48h-.76v3.84h.76v-2.2c0-.68.4-1,.96-1s.88.36.88,1v2.2h.76v-2.2c0-.68.4-1,.96-1s.88.36.88,1v2.2h.84ZM21.84,34.99h-1.4v-1.16h-.76v1.16h-.8v.68h.8v1.8c0,.88.32,1.4,1.28,1.4.36,0,.72-.1,1.04-.28l-.24-.68c-.22.13-.47.2-.72.2-.4,0-.6-.24-.6-.64v-1.84h1.4v-.64h0ZM28.96,34.87c-.42,0-.82.2-1.04.56v-.48h-.76v3.84h.76v-2.16c0-.64.32-1.04.84-1.04.18,0,.35.03.52.08l.24-.72c-.18-.05-.37-.07-.56-.08h0ZM18.2,35.27c-.4-.28-.96-.4-1.56-.4-.96,0-1.56.44-1.56,1.2,0,.64.44,1,1.28,1.12l.4.04c.44.08.72.24.72.44,0,.28-.32.48-.92.48-.46,0-.91-.13-1.28-.4l-.4.6c.56.4,1.24.48,1.64.48,1.12,0,1.72-.52,1.72-1.24,0-.68-.48-1-1.32-1.12l-.4-.04c-.36-.04-.68-.16-.68-.4,0-.28.32-.48.76-.48.48,0,.96.2,1.2.32l.39-.6ZM29.8,36.87c0,1.16.76,2,2,2,.56,0,.96-.12,1.36-.44l-.4-.6c-.28.23-.64.36-1,.36-.68,0-1.2-.52-1.2-1.28s.52-1.28,1.2-1.28c.36,0,.72.13,1,.36l.4-.6c-.4-.32-.8-.44-1.36-.44-1.2-.08-2,.76-2,1.92h0ZM24.44,34.87c-1.12,0-1.88.8-1.88,2s.8,2,1.96,2c.56.01,1.12-.17,1.56-.52l-.4-.56c-.32.25-.71.39-1.12.4-.52,0-1.08-.32-1.16-1h2.84v-.32c0-1.2-.72-2-1.8-2h0ZM24.4,35.59c.56,0,.96.36,1,.96h-2.08c.12-.56.48-.96,1.08-.96h0ZM14.04,36.87v-1.92h-.76v.48c-.28-.36-.68-.56-1.24-.56-1.08,0-1.88.84-1.88,2s.8,2,1.88,2c.56,0,.96-.2,1.24-.56v.48h.76v-1.93ZM10.96,36.87c0-.72.44-1.28,1.2-1.28.72,0,1.16.56,1.16,1.28,0,.76-.48,1.28-1.16,1.28-.76.04-1.2-.56-1.2-1.28h0ZM40.52,34.87c-.42,0-.82.2-1.04.56v-.48h-.76v3.84h.76v-2.16c0-.64.32-1.04.84-1.04.18,0,.35.03.52.08l.24-.72c-.18-.05-.37-.07-.56-.08h0ZM37.56,36.87v-1.92h-.76v.48c-.28-.36-.68-.56-1.24-.56-1.08,0-1.88.84-1.88,2s.8,2,1.88,2c.56,0,.96-.2,1.24-.56v.48h.76v-1.93ZM34.48,36.87c0-.72.44-1.28,1.2-1.28.72,0,1.16.56,1.16,1.28,0,.76-.48,1.28-1.16,1.28-.76.04-1.2-.56-1.2-1.28ZM45.29,36.87v-3.44h-.76v2c-.28-.36-.68-.56-1.24-.56-1.08,0-1.88.84-1.88,2s.8,2,1.88,2c.56,0,.96-.2,1.24-.56v.48h.76v-1.92ZM42.2,36.87c0-.72.44-1.28,1.2-1.28.72,0,1.16.56,1.16,1.28,0,.76-.48,1.28-1.16,1.28-.76.04-1.2-.56-1.2-1.28h0Z"/>
        <g>
          <rect class="cls-15" x="17.32" y="5.82" width="13.88" height="22.65"/>
          <path class="cls-19" d="M18.72,17.14c0-4.41,2.02-8.58,5.48-11.32C17.95.9,8.89,1.99,3.97,8.24-.94,14.5.14,23.55,6.39,28.47c5.22,4.11,12.58,4.11,17.81,0-3.46-2.74-5.48-6.91-5.48-11.32Z"/>
          <path class="cls-6" d="M47.53,17.14c0,7.95-6.43,14.39-14.38,14.4-3.23,0-6.36-1.08-8.9-3.08,6.25-4.95,7.31-14.02,2.37-20.28-.7-.88-1.49-1.67-2.37-2.37,6.25-4.91,15.29-3.83,20.21,2.42,2,2.54,3.08,5.67,3.08,8.9Z"/>
        </g>
      </g>
      <g>
        <polygon class="cls-25" points="30.2 82.94 17.32 82.87 17.44 59.72 30.32 59.79 30.2 82.94"/>
        <path class="cls-30" d="M18.2,71.3c.02-4.7,2.24-8.87,5.68-11.55-2.49-1.98-5.65-3.18-9.08-3.19C6.66,56.52.04,63.08,0,71.21s6.52,14.76,14.65,14.8c3.43.02,6.6-1.14,9.11-3.1-3.41-2.71-5.59-6.91-5.56-11.6"/>
        <path class="cls-29" d="M47.64,71.45c-.04,8.13-6.66,14.69-14.79,14.65-3.43-.02-6.59-1.21-9.08-3.19,3.44-2.68,5.66-6.85,5.68-11.55.02-4.7-2.15-8.89-5.57-11.6,2.51-1.96,5.68-3.12,9.11-3.1,8.13.04,14.69,6.67,14.65,14.8"/>
        <path class="cls-20" d="M34.53,89.5c.17,0,.42.03.61.11l-.27.8c-.18-.07-.36-.1-.53-.1-.56,0-.84.36-.84,1v2.19s-.86,0-.86,0l.02-3.91h.84s0,.48,0,.48c.22-.34.54-.57,1.03-.57h0ZM31.38,90.36h-1.39s0,1.76,0,1.76c0,.39.14.65.56.66.22,0,.5-.07.75-.22l.24.73c-.27.19-.7.3-1.06.3-1.01,0-1.35-.55-1.35-1.45v-1.78s-.78,0-.78,0v-.78s.8,0,.8,0v-1.19s.86,0,.86,0v1.19s1.38,0,1.38,0v.78h0ZM20.49,91.14c.09-.56.44-.95,1.04-.94.55,0,.9.35.98.95h-2.03ZM23.4,91.5c0-1.22-.75-2.06-1.85-2.06-1.14,0-1.95.82-1.96,2.04,0,1.24.82,2.06,1.99,2.06.59,0,1.13-.14,1.61-.54l-.41-.63c-.33.26-.75.41-1.14.4-.55,0-1.05-.26-1.16-.96h2.9c0-.09.02-.2.02-.31h0ZM27.14,90.56c-.24-.15-.72-.34-1.22-.34-.47,0-.74.17-.75.45,0,.26.29.34.66.39l.4.06c.85.13,1.36.49,1.36,1.18,0,.74-.66,1.27-1.79,1.27-.64,0-1.23-.17-1.69-.52l.4-.66c.29.22.71.41,1.3.42.58,0,.89-.17.89-.47,0-.22-.22-.34-.68-.41l-.4-.06c-.87-.13-1.35-.52-1.34-1.16,0-.78.64-1.25,1.63-1.24.62,0,1.19.15,1.59.42l-.37.69h0ZM37.63,90.33c-.18,0-.34.03-.49.09-.15.06-.28.15-.39.26-.11.11-.2.24-.26.4-.06.15-.1.32-.1.51,0,.19.03.36.09.51.06.15.15.29.26.4.11.11.24.2.39.26.15.06.31.09.49.09.18,0,.34-.03.49-.09.15-.06.28-.15.39-.26.11-.11.2-.24.26-.4.06-.15.1-.32.1-.51,0-.19-.03-.36-.09-.51-.06-.15-.15-.29-.26-.4-.11-.11-.24-.2-.39-.26-.15-.06-.31-.09-.49-.09h0ZM37.64,89.52c.3,0,.58.06.84.16.26.11.48.25.67.44.19.19.33.4.44.66.11.25.16.53.16.82s-.06.57-.16.82c-.11.25-.26.47-.45.65-.19.18-.41.33-.67.43-.26.1-.54.15-.84.15-.3,0-.58-.06-.84-.16-.26-.11-.48-.25-.67-.44s-.33-.41-.44-.66c-.11-.25-.16-.53-.16-.82s.06-.57.16-.82c.11-.25.26-.47.44-.65s.41-.33.67-.43c.26-.1.54-.16.84-.15h0ZM15.52,91.46c0-.69.46-1.25,1.19-1.25.7,0,1.17.55,1.17,1.26,0,.71-.48,1.25-1.18,1.24-.74,0-1.18-.57-1.18-1.26h0ZM18.69,91.48v-1.95s-.84,0-.84,0v.47c-.27-.35-.68-.58-1.23-.58-1.1,0-1.96.85-1.96,2.04,0,1.19.85,2.06,1.94,2.06.56,0,.97-.22,1.24-.57v.47s.85,0,.85,0v-1.95ZM13.88,93.41v-2.45c.02-.92-.57-1.55-1.52-1.56-.5-.01-1.02.14-1.38.69-.27-.43-.69-.7-1.29-.7-.42,0-.83.12-1.15.57v-.48s-.85,0-.85,0l-.02,3.91h.86s.01-2.16.01-2.16c0-.68.38-1.04.96-1.03.56,0,.85.37.85,1.03v2.18s.85,0,.85,0v-2.17c.01-.68.41-1.04.97-1.03.58,0,.86.37.85,1.03v2.18s.85,0,.85,0h0Z"/>
      </g>
      <g>
        <path class="cls-16" d="M340.9.96h13.86c1.93,0,3.14,1.58,2.69,3.52l-6.45,27.69c-.46,1.93-2.39,3.51-4.33,3.51h-13.85c-1.93,0-3.14-1.58-2.69-3.51l6.45-27.69c.45-1.94,2.39-3.52,4.32-3.52"/>
        <path class="cls-23" d="M353.6.96h15.93c1.93,0,1.06,1.58.61,3.52l-6.45,27.69c-.45,1.93-.31,3.51-2.25,3.51h-15.93c-1.94,0-3.14-1.58-2.68-3.51l6.45-27.69c.46-1.94,2.39-3.52,4.32-3.52"/>
        <path class="cls-26" d="M368.9.96h13.86c1.94,0,3.14,1.58,2.68,3.52l-6.45,27.69c-.46,1.93-2.39,3.51-4.33,3.51h-13.85c-1.94,0-3.14-1.58-2.69-3.51l6.45-27.69c.45-1.94,2.39-3.52,4.32-3.52"/>
        <path class="cls-31" d="M344.51,9.83c-1.42.01-1.85,0-1.98-.03-.05.25-1.01,4.68-1.02,4.68-.21.9-.36,1.54-.87,1.95-.29.24-.63.36-1.02.36-.63,0-1-.31-1.06-.91v-.2s.18-1.2.18-1.21c0,0,1.01-4.04,1.19-4.58,0-.03.01-.05.01-.06-1.96.02-2.31,0-2.34-.03-.01.04-.06.29-.06.29l-1.03,4.56-.09.39-.17,1.26c0,.37.07.68.22.94.47.82,1.81.94,2.57.94.98,0,1.89-.21,2.51-.59,1.07-.63,1.35-1.63,1.61-2.51l.12-.45s1.04-4.2,1.22-4.74c0-.03,0-.05.02-.06ZM348.05,13.22c-.25,0-.71.06-1.12.26-.15.08-.29.17-.44.25l.13-.49-.07-.08c-.87.18-1.07.2-1.87.31l-.07.04c-.09.78-.18,1.36-.52,2.88-.13.56-.27,1.13-.41,1.69l.04.07c.83-.04,1.08-.04,1.79-.03l.06-.06c.09-.47.1-.58.3-1.52.09-.45.29-1.43.39-1.78.18-.08.36-.16.53-.16.4,0,.35.35.34.49-.02.23-.16,1-.31,1.66l-.1.42c-.07.31-.15.62-.22.93l.03.06c.81-.04,1.06-.04,1.76-.03l.08-.06c.13-.73.16-.92.39-1.99l.11-.49c.22-.96.33-1.44.16-1.83-.17-.44-.59-.55-.98-.55ZM352,14.22c-.43.08-.71.14-.98.17-.27.04-.54.08-.96.14l-.03.03-.03.02c-.04.31-.07.58-.13.9-.05.33-.12.7-.25,1.23-.09.41-.14.55-.2.7-.05.14-.11.28-.22.69l.02.04.02.03c.39-.02.65-.03.91-.03.26,0,.53,0,.96,0l.04-.03.04-.03c.06-.36.07-.46.11-.64.04-.19.1-.45.26-1.15.07-.33.16-.66.23-.99.08-.33.16-.66.24-.99v-.04s-.03-.04-.03-.04ZM352.01,12.87c-.39-.23-1.08-.16-1.55.16-.46.31-.52.76-.12.99.39.23,1.08.16,1.54-.16.46-.32.52-.76.13-.99ZM354.39,18.24c.8,0,1.61-.22,2.22-.87.47-.53.69-1.31.76-1.64.24-1.07.05-1.57-.18-1.88-.36-.46-1-.61-1.67-.61-.4,0-1.35.04-2.1.73-.53.49-.78,1.17-.93,1.81-.15.66-.32,1.84.76,2.28.33.14.82.18,1.13.18ZM354.33,15.83c.18-.81.4-1.49.95-1.49.43,0,.46.51.27,1.32-.03.18-.19.85-.41,1.14-.15.21-.33.34-.52.34-.06,0-.4,0-.41-.51,0-.25.05-.51.11-.79ZM359.36,18.14l.06-.06c.09-.47.1-.58.3-1.52.1-.45.3-1.43.39-1.78.18-.08.35-.17.53-.17.4,0,.35.35.33.49-.01.24-.16,1-.31,1.66l-.09.42c-.07.31-.15.62-.22.93l.03.06c.82-.04,1.06-.04,1.75-.03l.08-.06c.12-.73.16-.92.39-1.99l.11-.49c.22-.96.33-1.44.17-1.83-.18-.44-.6-.55-.98-.55-.25,0-.71.06-1.12.26-.15.08-.29.16-.44.25l.13-.49-.07-.08c-.87.18-1.07.2-1.88.31l-.06.04c-.1.78-.18,1.36-.52,2.88-.13.56-.27,1.13-.41,1.69l.04.07c.83-.04,1.07-.04,1.79-.03ZM365.36,18.17c.05-.25.36-1.74.36-1.74,0,0,.26-1.09.28-1.13,0,0,.08-.11.16-.16h.12c1.13,0,2.42,0,3.42-.74.68-.51,1.15-1.25,1.36-2.16.05-.22.09-.49.09-.75,0-.35-.07-.69-.27-.96-.51-.72-1.53-.73-2.71-.73,0,0-.58,0-.58,0-1.51.02-2.11.01-2.36-.02-.02.11-.06.3-.06.3,0,0-.54,2.5-.54,2.51,0,0-1.29,5.32-1.35,5.57,1.32-.02,1.85-.02,2.08,0ZM366.36,13.73s.57-2.5.57-2.49l.02-.13v-.1s.24.02.24.02c0,0,1.18.1,1.21.1.47.18.66.65.53,1.25-.12.56-.48,1.02-.95,1.25-.38.19-.85.21-1.33.21h-.31l.02-.13ZM369.94,15.88c-.15.65-.33,1.83.75,2.25.34.15.65.19.97.17.33-.02.64-.18.92-.42-.03.1-.05.2-.08.3l.05.06c.78-.03,1.02-.03,1.86-.03l.08-.06c.12-.72.24-1.42.56-2.81.16-.66.31-1.32.47-1.98l-.03-.07c-.87.16-1.1.2-1.94.31l-.06.05c0,.07-.02.13-.03.2-.13-.21-.32-.39-.61-.5-.37-.15-1.25.04-2,.73-.53.49-.78,1.16-.92,1.8ZM371.76,15.92c.19-.8.4-1.47.95-1.47.35,0,.53.32.5.87-.03.14-.06.28-.1.45-.06.24-.12.47-.17.71-.06.16-.13.31-.2.41-.14.2-.48.33-.68.33-.06,0-.4,0-.41-.5,0-.25.05-.51.11-.79ZM381.29,13.29l-.07-.08c-.86.17-1.02.2-1.81.31l-.06.06s0,.02,0,.04h0c-.59,1.34-.57,1.05-1.05,2.12,0-.05,0-.08,0-.13l-.12-2.32-.08-.08c-.9.17-.92.2-1.75.31l-.06.06s0,.06-.01.09h0c.1.54.08.42.18,1.26.05.41.11.83.16,1.23.08.68.13,1.02.23,2.05-.56.93-.7,1.28-1.24,2.09h0s-.38.61-.38.61c-.04.06-.08.11-.14.13-.06.03-.14.04-.25.04h-.21l-.31,1.04,1.08.02c.63,0,1.03-.3,1.24-.7l.68-1.16h-.01l.07-.08c.46-.98,3.92-6.92,3.92-6.92ZM369.94,26.99h-.46l1.69-5.59h.56l.18-.58.02.64c-.02.4.29.75,1.11.69h.95l.33-1.08h-.36c-.2,0-.3-.05-.29-.16l-.02-.65h-1.75c-.57.02-2.26.06-2.6.15-.41.11-.85.42-.85.42l.17-.58h-1.64l-.34,1.14-1.71,5.67h-.33l-.33,1.07h3.26l-.11.36h1.61l.11-.36h.45l.35-1.15ZM368.6,22.54c-.26.07-.75.29-.75.29l.43-1.43h1.3l-.31,1.04s-.4.02-.67.09ZM368.62,24.58s-.41.05-.68.11c-.27.08-.76.33-.76.33l.45-1.49h1.31l-.32,1.04ZM367.89,27.01h-1.31l.38-1.25h1.3l-.37,1.25ZM371.04,23.54h1.88l-.27.88h-1.91l-.29.96h1.67l-1.26,1.78c-.09.13-.17.18-.26.21-.09.04-.2.1-.34.1h-.46l-.32,1.05h1.21c.63,0,1-.29,1.28-.66l.87-1.19.19,1.2c.04.23.2.36.31.41.12.06.25.17.42.18.19,0,.33.01.42.01h.6l.36-1.17h-.23c-.13,0-.37-.02-.41-.06-.04-.05-.04-.13-.06-.25l-.19-1.21h-.77l.34-.4h1.9l.29-.96h-1.76l.27-.88h1.76l.33-1.08h-5.24l-.32,1.08ZM355.14,27.25l.44-1.46h1.81l.33-1.09h-1.81l.28-.9h1.77l.33-1.05h-4.42l-.32,1.05h1l-.27.9h-1.01l-.33,1.11h1l-.59,1.93c-.08.26.04.35.11.47.08.12.15.19.32.24.18.04.3.06.46.06h2.04l.36-1.2-.9.12c-.17,0-.66-.02-.6-.18ZM355.35,20.25l-.46.83c-.1.18-.19.29-.27.34-.07.04-.21.06-.41.06h-.24l-.32,1.06h.79c.38,0,.67-.14.81-.21.15-.08.19-.03.31-.15l.27-.23h2.48l.33-1.1h-1.81l.32-.6h-1.8ZM359,27.27c-.04-.06-.01-.17.05-.39l.68-2.24h2.41c.35,0,.6,0,.77-.02.18-.02.37-.08.58-.2.22-.12.33-.24.42-.39.1-.14.27-.46.42-.94l.85-2.83h-2.5s-.77.13-1.11.25c-.34.14-.83.53-.83.53l.23-.78h-1.54l-2.16,7.17c-.08.28-.13.48-.14.6,0,.13.16.26.27.36.13.1.32.08.5.1.19.01.47.02.85.02h1.19l.36-1.23-1.06.1c-.11,0-.2-.06-.23-.11ZM360.17,23.13h2.53l-.16.5s-.08-.02-.33,0h-2.19l.16-.51ZM360.67,21.44h2.55l-.18.61s-1.2-.01-1.39.02c-.85.15-1.34.6-1.34.6l.37-1.23ZM362.59,25.32c-.02.08-.05.12-.1.16-.05.03-.13.04-.26.04h-.36l.02-.61h-1.5l-.06,3c0,.22.02.34.18.44.16.13.65.14,1.3.14h.94l.34-1.12-.82.04-.27.02s-.07-.03-.11-.07c-.03-.03-.09-.01-.08-.23v-.77s.86-.04.86-.04c.46,0,.66-.15.83-.29.16-.14.21-.3.27-.51l.14-.68h-1.18l-.15.48Z"/>
      </g>
      <g>
        <g>
          <polygon class="cls-27" points="105.45 25.99 102.03 25.99 104.17 12.86 107.58 12.86 105.45 25.99"/>
          <path class="cls-27" d="M98.16,12.86l-3.26,9.03-.39-1.94h0s-1.15-5.9-1.15-5.9c0,0-.14-1.18-1.62-1.18h-5.38c-.18,0-.19.15-.06.22,0,0,1.65.34,3.57,1.5l2.97,11.4h3.56l5.44-13.12h-3.68Z"/>
          <path class="cls-27" d="M123.27,21.34l1.8-4.91,1.01,4.91h-2.81ZM127.03,25.99h3.14l-2.74-13.12h-2.75c-1.27,0-1.58.98-1.58.98l-5.1,12.15h3.56l.71-1.95h4.34l.4,1.95Z"/>
          <path class="cls-27" d="M118.06,16.02l.49-2.82c-3.17-1.21-8.8-.51-8.8,3.77,0,3.39,4.73,3.43,4.73,5.21s-4.24,1.46-5.64.34l-.51,2.95c3.2,1.55,9.71.78,9.71-3.75,0-3.41-4.77-3.73-4.77-5.21s3.33-1.29,4.79-.49Z"/>
        </g>
        <rect class="cls-5" x="78.66" width="59.07" height="6.97"/>
        <rect class="cls-9" x="78.66" y="32.44" width="59.07" height="6.43"/>
      </g>
      <g>
        <g>
          <g>
            <polygon class="cls-27" points="105.45 79.96 102.03 79.96 104.17 66.84 107.58 66.84 105.45 79.96"/>
            <path class="cls-27" d="M98.16,66.84l-3.26,9.03-.39-1.94h0s-1.15-5.9-1.15-5.9c0,0-.14-1.18-1.62-1.18h-5.38c-.18,0-.19.15-.06.22,0,0,1.65.34,3.57,1.5l2.97,11.4h3.56l5.44-13.12h-3.68Z"/>
            <path class="cls-27" d="M123.27,75.32l1.8-4.91,1.01,4.91h-2.81ZM127.03,79.96h3.14l-2.74-13.12h-2.75c-1.27,0-1.58.98-1.58.98l-5.1,12.15h3.56l.71-1.95h4.34l.4,1.95Z"/>
            <path class="cls-27" d="M118.06,69.99l.49-2.82c-3.17-1.21-8.8-.51-8.8,3.77,0,3.39,4.73,3.43,4.73,5.21s-4.24,1.46-5.64.34l-.51,2.95c3.2,1.55,9.71.78,9.71-3.75,0-3.41-4.77-3.73-4.77-5.21s3.33-1.29,4.79-.49Z"/>
          </g>
          <rect class="cls-5" x="78.66" y="53.97" width="59.07" height="6.97"/>
          <rect class="cls-9" x="78.66" y="86.42" width="59.07" height="6.43"/>
        </g>
        <text class="cls-33" transform="translate(108.96 85.39) scale(1.03 1)"><tspan x="0" y="0">Ele</tspan><tspan class="cls-37" x="6.97" y="0">c</tspan><tspan x="9.59" y="0">t</tspan><tspan class="cls-38" x="11.47" y="0">r</tspan><tspan x="13.27" y="0">on</tspan></text>
      </g>
      <g>
        <path class="cls-13" d="M197.66,61.04l-3.56,9.86-.42-2.12h0s-1.25-6.44-1.25-6.44c0,0-.15-1.29-1.77-1.29h-5.88c-.19,0-.2.17-.07.24,0,0,1.8.37,3.9,1.64l3.24,12.45h3.89l5.94-14.33h-4.02Z"/>
        <path class="cls-13" d="M211.08,92.08h-34.12v-36.73h34.12v36.73ZM177.96,79.08h32.12v-22.73h-32.12v22.73Z"/>
        <text class="cls-36" transform="translate(184.81 88.83) scale(.81 1)"><tspan x="0" y="0">PAY</tspan></text>
      </g>
      <g>
        <g>
          <path class="cls-22" d="M250.57,11.8c0-.13.02-.18.17-.18.77.01,1.54-.01,2.31.01,1.13.04,2.16.36,3,1.16.58.55.94,1.22,1.08,2,.28,1.56-.15,2.88-1.34,3.93-.65.58-1.42.87-2.28.93-.94.08-1.89.02-2.84.04-.11,0-.1-.06-.1-.13,0-.8,0-6.49,0-7.78ZM252.14,18.19c0,.11.02.14.14.14.32,0,.63,0,.94-.04.57-.06,1.11-.23,1.53-.65.7-.7.96-1.56.77-2.53-.2-.98-.76-1.66-1.73-1.97-.47-.15-.97-.14-1.46-.14-.14,0-.19.03-.19.18,0,.83,0,4.16,0,5Z"/>
          <path class="cls-22" d="M298.32,16.32c.85,1.13,1.68,2.25,2.53,3.39h-.34c-.48,0-.95,0-1.43,0-.14,0-.22-.05-.29-.16-.66-.99-1.32-1.97-1.99-2.96,0-.01-.02-.03-.03-.04-.04-.1-.13-.09-.2-.08-.08.02-.04.1-.04.15,0,.97,0,1.94,0,2.9,0,.16-.05.19-.2.19-.42-.01-.83,0-1.25,0-.11,0-.15-.02-.15-.14,0-2.6,0-5.21,0-7.81,0-.09,0-.14.12-.13.9.02,1.8-.04,2.69.03.62.05,1.21.22,1.69.64.57.51.74,1.18.7,1.91-.06,1.08-.65,1.8-1.7,2.06-.04,0-.07.03-.12.04ZM296.53,14.13c0,.36,0,.72,0,1.07,0,.13.04.15.15.15.23,0,.47,0,.7-.03.69-.07,1.08-.47,1.13-1.16.04-.55-.24-.97-.77-1.14-.35-.11-.7-.1-1.06-.11-.12,0-.16.02-.15.15,0,.36,0,.71,0,1.07Z"/>
          <path class="cls-22" d="M289.44,11.78c0-.12.02-.16.15-.16,1.39,0,2.78,0,4.17,0,.11,0,.15.02.14.14,0,.37,0,.75,0,1.12,0,.11-.04.13-.14.13-.86,0-1.72,0-2.58,0-.15,0-.18.04-.17.18,0,.49,0,.97,0,1.46,0,.12.03.15.15.15.83,0,1.66,0,2.49,0,.13,0,.16.04.15.16,0,.36,0,.72,0,1.07,0,.11-.03.14-.14.14-.82,0-1.65,0-2.47,0-.15,0-.18.05-.18.19,0,.61,0,1.22,0,1.83,0,.12.02.16.15.16.86,0,1.72,0,2.58,0,.13,0,.16.04.15.16,0,.37,0,.74,0,1.11,0,.09-.02.12-.11.12-1.41,0-2.82,0-4.23,0-.13,0-.12-.06-.12-.15,0-1.3,0-6.49,0-7.78Z"/>
          <path class="cls-22" d="M261.11,17.37c.21.4.49.72.91.9.44.2.9.26,1.36.06.42-.19.64-.52.66-.98.02-.45-.22-.75-.61-.95-.45-.22-.93-.36-1.39-.56-.45-.19-.87-.42-1.18-.82-.19-.24-.29-.52-.33-.82-.16-1.33.56-2.28,1.67-2.59,1.15-.33,2.19-.04,3.12.69.07.05.09.09.03.17-.24.3-.47.6-.69.9-.07.09-.1.07-.16,0-.25-.27-.54-.49-.92-.54-.47-.07-.92,0-1.25.39-.3.35-.23.79.14,1.06.33.24.72.36,1.1.5.35.14.7.29,1.03.48.67.38,1.04.94,1.09,1.73.08,1.32-.61,2.44-1.91,2.78-1.38.36-2.73-.04-3.62-1.35-.04-.05-.04-.09,0-.13.32-.3.64-.61.96-.93Z"/>
          <path class="cls-22" d="M280.98,11.63c.55,0,1.07,0,1.6,0,.1,0,.15.04.18.13.48,1.22,1.87,4.71,2.08,5.25.1-.11,1.48-3.63,2.14-5.26.03-.07.04-.12.14-.12.53,0,1.07,0,1.63,0-.13.31-2.42,5.73-3.43,8.16-.04.1-.09.13-.19.12-.2,0-.41,0-.61,0-.09,0-.13-.03-.16-.11-.63-1.52-2.83-6.84-3.3-7.98-.02-.06-.05-.12-.07-.19Z"/>
          <path class="cls-22" d="M272.39,13.81c-.3-.28-.58-.52-.92-.68-1.34-.62-2.96.05-3.47,1.47-.4,1.1-.27,2.14.53,3.03.54.6,1.24.81,2.03.8.63,0,1.14-.26,1.6-.67.07-.06.13-.12.2-.18.06.03.03.08.03.12,0,.53,0,1.06,0,1.59,0,.08-.01.13-.1.17-1.62.78-3.67.47-4.94-.83-.78-.8-1.17-1.77-1.2-2.9-.04-1.9,1.22-3.56,2.98-4.09,1.08-.33,2.13-.26,3.15.25.05.03.1.05.1.13,0,.58,0,1.16,0,1.79Z"/>
          <path class="cls-22" d="M259.51,19.53c0,.13-.02.18-.17.18-.43-.01-.86,0-1.28,0-.1,0-.14-.03-.14-.13,0-2.6,0-5.21,0-7.81,0-.12.04-.14.15-.14.42,0,.84,0,1.27,0,.14,0,.18.03.18.17,0,1.29,0,6.45,0,7.73Z"/>
          <path class="cls-17" d="M301.15,11.57c-.34,0-.62.28-.62.62s.28.62.62.62.62-.28.62-.62-.28-.62-.62-.62ZM301.15,12.7c-.27,0-.49-.23-.49-.51s.22-.51.49-.51.49.23.49.51-.22.51-.49.51Z"/>
          <path class="cls-22" d="M301.2,12.26c.08.1.15.2.23.31h-.03s-.09,0-.13,0c-.01,0-.02,0-.03-.01-.06-.09-.12-.18-.18-.27,0,0,0,0,0,0,0,0-.01,0-.02,0,0,0,0,0,0,.01,0,.09,0,.17,0,.26,0,.01,0,.02-.02.02-.04,0-.08,0-.11,0,0,0-.01,0-.01-.01,0-.23,0-.47,0-.71,0,0,0-.01.01-.01.08,0,.16,0,.24,0,.06,0,.11.02.15.06.05.05.07.11.06.17,0,.1-.06.16-.15.19,0,0,0,0-.01,0ZM301.04,12.06s0,.06,0,.1c0,.01,0,.01.01.01.02,0,.04,0,.06,0,.06,0,.1-.04.1-.1,0-.05-.02-.09-.07-.1-.03-.01-.06,0-.1,0-.01,0-.01,0-.01.01,0,.03,0,.06,0,.1Z"/>
          <g>
            <ellipse class="cls-32" cx="277.16" cy="15.67" rx="4.27" ry="4.28"/>
            <g class="cls-39">
              <g class="cls-42">
                <path class="cls-12" d="M281.91,13.34c2.14,2.42,2.17,5.88.07,7.73-2.1,1.85-5.53,1.39-7.66-1.02s-2.17-5.88-.07-7.73c2.1-1.85,5.53-1.39,7.66,1.02Z"/>
              </g>
            </g>
          </g>
        </g>
        <path class="cls-18" d="M303.25,19.55c-3.64,3.38-15.18,10.87-40.79,16.13h40.79v-16.13Z"/>
        <rect class="cls-2" x="248.61" y=".96" width="54.64" height="34.72"/>
      </g>
      <g>
        <text class="cls-34" transform="translate(172.66 27.98) scale(.84 1)"><tspan x="0" y="0">Diners Club</tspan></text>
        <text class="cls-35" transform="translate(172.48 33.34) scale(.93 1)"><tspan x="0" y="0">INTERNATIONAL</tspan></text>
        <rect class="cls-3" x="169.64" y="2.05" width="47.9" height="34.31" rx="2.25" ry="2.25"/>
        <g>
          <path class="cls-1" d="M201.95,12.75c0,4.22-3.42,7.65-7.65,7.65h-2.25c-3.74-.9-7.65-4.14-7.65-7.65,0-3.21,3.51-6.52,6.94-7.65h2.96c4.22,0,7.65,3.42,7.65,7.65Z"/>
          <g>
            <circle class="cls-4" cx="192.06" cy="12.75" r="7.65"/>
            <g>
              <path class="cls-5" d="M187.21,12.75c0,2.15,1.41,3.96,3.35,4.59v-9.18c-1.94.63-3.35,2.44-3.35,4.59Z"/>
              <path class="cls-5" d="M196.91,12.75c0-2.15-1.41-3.96-3.35-4.59v9.18c1.94-.63,3.35-2.44,3.35-4.59Z"/>
            </g>
          </g>
        </g>
      </g>
      <g>
        <path class="cls-28" d="M274.58,54.94h7.8v28.92c0,3.42-2.78,6.19-6.19,6.19h-7.8v-28.92c0-3.42,2.78-6.19,6.19-6.19Z"/>
        <path class="cls-14" d="M291.07,54.94h7.8v28.92c0,3.42-2.78,6.19-6.19,6.19h-7.8v-28.92c0-3.42,2.78-6.19,6.19-6.19Z"/>
        <path class="cls-10" d="M258.18,54.94h7.8v28.92c0,3.42-2.78,6.19-6.19,6.19h-7.8v-28.92c0-3.42,2.78-6.19,6.19-6.19Z"/>
        <path class="cls-24" d="M297.05,74.03c-.15-.3-.34-.56-.6-.78-.25-.22-.54-.4-.88-.54s-1-.28-1.75-.28c.75,0,1.39-.24,1.66-.41.27-.18.49-.38.67-.61.18-.23.31-.48.4-.75.09-.27.13-.55.13-.84,0-.93-.42-1.62-1.25-2.08-.83-.46-1.94-.69-5.82-.69h-4.74v11.49h4.48c3.97,0,5.41-.29,6.41-.88,1-.59,1.5-1.47,1.5-2.64,0-.37-.07-.7-.22-1ZM287.28,68.84h3.15c.82,0,1.48.64,1.48,1.43s-.66,1.43-1.48,1.43h-3.15v-2.86ZM290.61,76.48h-3.34v-3.12h3.34c.89,0,1.61.7,1.61,1.56s-.72,1.56-1.61,1.56Z"/>
        <path class="cls-24" d="M277.05,68.63c1.6,0,3.04.51,4.05,1.31v-2.45s-1.02.1-2.58-.3c-1.09-.28-2.26-.51-3.5-.51-2.66,0-5.04.83-6.63,2.14v7.85c1.6,1.31,3.97,2.14,6.63,2.14,1.25,0,2.42-.22,3.5-.51.81-.22,2.58-.52,2.58-.52v-2.29c-1.01.8-2.45,1.31-4.05,1.31-3.06,0-5.43-1.83-5.43-4.09s2.37-4.09,5.43-4.09Z"/>
        <path class="cls-24" d="M265.3,66.68c-.07.05-5.04,0-5.04,0v7.47c0,.65-.17,4.67-8.28,1.29v2.78s3.74,1.64,8.46.6,4.86-3.28,4.86-4.72v-7.42Z"/>
      </g>
      <g>
        <path class="cls-21" d="M323.51,79l-1.39-5.68-1.06,5.68h-3.78l-2.79-10.61h2.69l2.03,6.98h.02l1.68-6.8h2.51l1.97,6.96h.01l1.7-7.14h2.65l-2.32,10.61h-3.92Z"/>
        <path class="cls-21" d="M335.76,79.28c-2.62,0-5.4-1.91-5.4-5.57s2.79-5.63,5.4-5.63,5.38,2.01,5.38,5.66-2.79,5.54-5.38,5.54ZM335.76,70.27c-1.94,0-3.23,1.52-3.23,3.47s1.29,3.36,3.23,3.36,3.21-1.45,3.21-3.36-1.29-3.47-3.21-3.47Z"/>
        <path class="cls-21" d="M347.29,75.73h-2.21l-.03,3.27h-2.01v-10.61h4.56c2.41.01,3.94,1.67,3.98,3.32s-.65,2.89-1.93,3.32l2.51,4.07-2.98-.09-1.89-3.27ZM347.11,70.43h-2.03v2.86l1.88.03c1.13,0,1.8-.31,1.8-1.44,0-.7-.5-1.44-1.65-1.44Z"/>
        <path class="cls-21" d="M353.32,68.38h2.38v8.76h4.69v1.85h-7.06l-.02-10.61Z"/>
        <path class="cls-21" d="M365.61,79h-4.17v-10.61h4.6c2.88,0,4.69,2.51,4.69,5.31,0,3-1.97,5.3-5.12,5.3ZM365.25,70.27h-1.84l-.02,6.83h1.81c2.03.01,3.33-1.49,3.33-3.36s-.91-3.47-3.28-3.47Z"/>
        <path class="cls-21" d="M372.88,68.85h.96v9.42h5.15v1.18h-6.11v-10.6Z"/>
        <path class="cls-21" d="M379.91,68.85h.99v10.6h-.99v-10.6Z"/>
        <path class="cls-21" d="M384.55,71.1v8.34h-1.19v-10.61h.83l7.04,8.17v-8.17h1.16v10.63h-.66l-7.18-8.36Z"/>
        <path class="cls-21" d="M394.27,68.85h6.15v1.12h-5.15v3.66h4.23v1.11h-4.23v3.57h5.29v1.13h-6.3v-10.6Z"/>
        <g>
          <path class="cls-21" d="M408.45,72.02c2.01,2.03,3.42,4.43,4.25,7.18h1.57c-.88-3.18-2.47-5.95-4.78-8.26-.36.34-.71.7-1.04,1.09Z"/>
          <path class="cls-21" d="M406.67,74.52c1.26,1.4,2.26,2.96,2.99,4.67h1.62c-.87-2.23-2.12-4.22-3.78-5.98-.3.42-.58.85-.84,1.3Z"/>
          <path class="cls-21" d="M405.28,77.59c.39.51.74,1.05,1.07,1.6h1.72c-.6-1.14-1.31-2.21-2.14-3.21-.24.52-.45,1.06-.64,1.61Z"/>
          <path class="cls-21" d="M424.15,70.2c-.27-.21-.54-.41-.82-.59-1.86,1.95-3.24,4.2-4.1,6.74-.24-1.07-.56-2.09-.96-3.07.62-1.78,1.49-3.42,2.63-4.89-.33-.12-.67-.23-1.01-.31-.89,1.21-1.63,2.51-2.2,3.9-.72-1.44-1.62-2.78-2.71-4-.55.12-1.08.29-1.6.49,1.57,1.65,2.77,3.52,3.59,5.63-.23.82-.4,1.68-.53,2.56-.89-2.86-2.4-5.36-4.5-7.5-.44.25-.86.53-1.28.83,2.54,2.51,4.17,5.59,4.87,9.22h1.7c.05-1.13.15-2.22.35-3.26.28,1.04.47,2.13.59,3.26h1.5c-.02-.18-.03-.36-.05-.53.73-3.28,2.25-6.1,4.53-8.46Z"/>
          <path class="cls-21" d="M425.54,71.47c-2.11,2.2-3.59,4.77-4.42,7.72h1.05c.8-2.65,2.15-4.98,4.04-6.98-.22-.26-.44-.51-.67-.75Z"/>
          <path class="cls-21" d="M427.34,73.72c-1.43,1.63-2.53,3.46-3.3,5.48h1.08c.68-1.67,1.61-3.19,2.78-4.58-.18-.31-.36-.61-.55-.9Z"/>
          <path class="cls-21" d="M426.66,79.19h1.15c.38-.68.81-1.33,1.28-1.96-.13-.37-.28-.72-.43-1.07-.77.95-1.44,1.96-2,3.03Z"/>
        </g>
      </g>
    </g>
  </g>
</svg>