<?xml version="1.0" encoding="UTF-8"?>
<svg id="Layer_2" data-name="Layer 2" xmlns="http://www.w3.org/2000/svg" xmlns:xlink="http://www.w3.org/1999/xlink" viewBox="0 0 404.64 226.6">
  <defs>
    <style>
      .cls-1 {
        fill: url(#linear-gradient-4);
      }

      .cls-1, .cls-2, .cls-3, .cls-4, .cls-5, .cls-6, .cls-7, .cls-8, .cls-9, .cls-10, .cls-11, .cls-12, .cls-13, .cls-14, .cls-15, .cls-16, .cls-17, .cls-18, .cls-19, .cls-20, .cls-21, .cls-22 {
        stroke: #49494a;
      }

      .cls-1, .cls-2, .cls-3, .cls-9, .cls-11 {
        stroke-miterlimit: 10;
      }

      .cls-1, .cls-2, .cls-3, .cls-9, .cls-11, .cls-12 {
        stroke-width: .25px;
      }

      .cls-23 {
        opacity: .2;
      }

      .cls-23, .cls-24, .cls-25, .cls-26, .cls-27 {
        stroke-width: 0px;
      }

      .cls-23, .cls-26 {
        fill: #98761e;
      }

      .cls-2 {
        fill: url(#linear-gradient-2);
      }

      .cls-3 {
        fill: url(#linear-gradient-6);
      }

      .cls-4 {
        stroke-width: .13px;
      }

      .cls-4, .cls-5, .cls-6, .cls-7, .cls-8, .cls-10, .cls-12, .cls-13, .cls-14, .cls-15, .cls-16, .cls-17, .cls-18, .cls-19, .cls-20, .cls-21, .cls-22 {
        fill: none;
        stroke-linecap: round;
        stroke-linejoin: round;
      }

      .cls-5 {
        stroke-width: .21px;
      }

      .cls-6 {
        stroke-width: .2px;
      }

      .cls-7 {
        stroke-width: .17px;
      }

      .cls-8 {
        stroke-width: .18px;
      }

      .cls-28 {
        opacity: .8;
      }

      .cls-9 {
        fill: url(#linear-gradient);
      }

      .cls-10 {
        stroke-width: .15px;
      }

      .cls-11 {
        fill: url(#linear-gradient-5);
      }

      .cls-24 {
        fill: url(#linear-gradient-3);
      }

      .cls-25 {
        fill: #404041;
      }

      .cls-13 {
        stroke-width: .18px;
      }

      .cls-14 {
        stroke-width: .22px;
      }

      .cls-15 {
        stroke-width: .23px;
      }

      .cls-16 {
        stroke-width: .12px;
      }

      .cls-17 {
        stroke-width: .11px;
      }

      .cls-18 {
        stroke-width: .1px;
      }

      .cls-19 {
        stroke-width: .14px;
      }

      .cls-27 {
        fill: #593769;
      }

      .cls-20 {
        stroke-width: .16px;
      }

      .cls-21 {
        stroke-width: .24px;
      }

      .cls-22 {
        stroke-width: .19px;
      }
    </style>
    <linearGradient id="linear-gradient" x1="391.8" y1="252.37" x2="394.51" y2="262.4" gradientTransform="translate(-186.82 -79.32) rotate(-6.55)" gradientUnits="userSpaceOnUse">
      <stop offset="0" stop-color="#fff"/>
      <stop offset=".02" stop-color="#e5e4e5"/>
      <stop offset=".07" stop-color="#bcbbbc"/>
      <stop offset=".11" stop-color="#979696"/>
      <stop offset=".17" stop-color="#787576"/>
      <stop offset=".23" stop-color="#5d5a5b"/>
      <stop offset=".29" stop-color="#474445"/>
      <stop offset=".37" stop-color="#373334"/>
      <stop offset=".46" stop-color="#2b2728"/>
      <stop offset=".6" stop-color="#242021"/>
      <stop offset=".96" stop-color="#231f20"/>
    </linearGradient>
    <linearGradient id="linear-gradient-2" x1="385.42" y1="252.8" x2="390.92" y2="273.37" gradientTransform="translate(-186.82 -79.32) rotate(-6.55)" gradientUnits="userSpaceOnUse">
      <stop offset=".06" stop-color="#fff"/>
      <stop offset=".07" stop-color="#e5e4e5"/>
      <stop offset=".09" stop-color="#bcbbbc"/>
      <stop offset=".11" stop-color="#979696"/>
      <stop offset=".14" stop-color="#787576"/>
      <stop offset=".17" stop-color="#5d5a5b"/>
      <stop offset=".2" stop-color="#474445"/>
      <stop offset=".24" stop-color="#373334"/>
      <stop offset=".29" stop-color="#2b2728"/>
      <stop offset=".36" stop-color="#242021"/>
      <stop offset=".54" stop-color="#231f20"/>
    </linearGradient>
    <linearGradient id="linear-gradient-3" x1="300.2" y1="405.48" x2="235.2" y2="182.76" gradientTransform="translate(-186.82 -79.32) rotate(-6.55)" gradientUnits="userSpaceOnUse">
      <stop offset=".38" stop-color="#e5e2df"/>
      <stop offset=".38" stop-color="#ddd9d6"/>
      <stop offset=".39" stop-color="#d0cacc"/>
      <stop offset=".42" stop-color="#b1a3b1"/>
      <stop offset=".47" stop-color="#7e6487"/>
      <stop offset=".5" stop-color="#593769"/>
      <stop offset=".52" stop-color="#f2f3f3"/>
      <stop offset=".52" stop-color="#e5e4e8"/>
      <stop offset=".52" stop-color="#c6bdcb"/>
      <stop offset=".53" stop-color="#927e9d"/>
      <stop offset=".53" stop-color="#593769"/>
      <stop offset=".56" stop-color="#593769"/>
    </linearGradient>
    <linearGradient id="linear-gradient-4" x1="414.44" y1="244.31" x2="425.04" y2="282.54" gradientTransform="translate(-186.82 -79.32) rotate(-6.55)" gradientUnits="userSpaceOnUse">
      <stop offset=".06" stop-color="#fff"/>
      <stop offset=".06" stop-color="#e5e4e5"/>
      <stop offset=".07" stop-color="#bcbbbc"/>
      <stop offset=".09" stop-color="#979696"/>
      <stop offset=".1" stop-color="#787576"/>
      <stop offset=".11" stop-color="#5d5a5b"/>
      <stop offset=".13" stop-color="#474445"/>
      <stop offset=".15" stop-color="#373334"/>
      <stop offset=".18" stop-color="#2b2728"/>
      <stop offset=".21" stop-color="#242021"/>
      <stop offset=".3" stop-color="#231f20"/>
    </linearGradient>
    <linearGradient id="linear-gradient-5" x1="394.74" y1="251.76" x2="397.99" y2="263.47" gradientTransform="translate(-186.82 -79.32) rotate(-6.55)" gradientUnits="userSpaceOnUse">
      <stop offset="0" stop-color="#fff"/>
      <stop offset=".02" stop-color="#e5e4e5"/>
      <stop offset=".06" stop-color="#bcbbbc"/>
      <stop offset=".1" stop-color="#979696"/>
      <stop offset=".14" stop-color="#787576"/>
      <stop offset=".19" stop-color="#5d5a5b"/>
      <stop offset=".24" stop-color="#474445"/>
      <stop offset=".31" stop-color="#373334"/>
      <stop offset=".39" stop-color="#2b2728"/>
      <stop offset=".5" stop-color="#242021"/>
      <stop offset=".81" stop-color="#231f20"/>
    </linearGradient>
    <linearGradient id="linear-gradient-6" x1="446.46" y1="218.84" x2="454.55" y2="251.83" gradientTransform="translate(-186.82 -79.32) rotate(-6.55)" gradientUnits="userSpaceOnUse">
      <stop offset=".38" stop-color="#e5e2df"/>
      <stop offset=".38" stop-color="#d8d3d4"/>
      <stop offset=".4" stop-color="#b8acb9"/>
      <stop offset=".42" stop-color="#856d8e"/>
      <stop offset=".44" stop-color="#593769"/>
      <stop offset=".54" stop-color="#97772c"/>
      <stop offset=".56" stop-color="#88683a"/>
      <stop offset=".6" stop-color="#63415f"/>
      <stop offset=".61" stop-color="#593769"/>
      <stop offset=".82" stop-color="#7a5a52"/>
      <stop offset=".9" stop-color="#97772c"/>
    </linearGradient>
  </defs>
  <g id="Layer_1-2" data-name="Layer 1">
    <g>
      <path class="cls-27" d="M295.54,23.14l-1.16-5.18c-.67-3-3.35-5.13-6.43-5.1l-5.31.04,5.18-1.16c3-.67,5.13-3.35,5.1-6.43l-.04-5.31,1.16,5.18c.67,3,3.35,5.13,6.43,5.1l5.31-.04-5.18,1.16c-3,.67-5.13,3.35-5.1,6.43l.04,5.31Z"/>
      <path class="cls-27" d="M266.64,90.56l-1.16-5.18c-.67-3-3.35-5.13-6.43-5.1l-5.31.04,5.18-1.16c3-.67,5.13-3.35,5.1-6.43l-.04-5.31,1.16,5.18c.67,3,3.35,5.13,6.43,5.1l5.31-.04-5.18,1.16c-3,.67-5.13,3.35-5.1,6.43l.04,5.31Z"/>
      <path class="cls-27" d="M256.04,45.46l-.54-2.42c-.31-1.4-1.56-2.39-3-2.38l-2.48.02,2.42-.54c1.4-.31,2.39-1.56,2.38-3l-.02-2.48.54,2.42c.31,1.4,1.56,2.39,3,2.38l2.48-.02-2.42.54c-1.4.31-2.39,1.56-2.38,3l.02,2.48Z"/>
      <path class="cls-25" d="M324.24,60.03l-.53-2.38c-.31-1.38-1.54-2.36-2.95-2.35l-2.44.02,2.38-.53c1.38-.31,2.36-1.54,2.35-2.95l-.02-2.44.53,2.38c.31,1.38,1.54,2.36,2.95,2.35l2.44-.02-2.38.53c-1.38.31-2.36,1.54-2.35,2.95l.02,2.44Z"/>
      <path class="cls-27" d="M321.62,105.42l-1.16-5.18c-.67-3-3.35-5.13-6.43-5.1l-5.31.04,5.18-1.16c3-.67,5.13-3.35,5.1-6.43l-.04-5.31,1.16,5.18c.67,3,3.35,5.13,6.43,5.1l5.31-.04-5.18,1.16c-3,.67-5.13,3.35-5.1,6.43l.04,5.31Z"/>
      <g>
        <path class="cls-9" d="M229.37,126.48c1.09,2.09,2.21,4.94,2.85,7.14.21.73,1.01,1.1,1.7.8.09-.04.17-.08.26-.12.68-.3,1.03-1.05.83-1.76-.59-2.1-1.65-4.85-2.71-6.97-.36-.72-1.22-1.05-1.97-.76-.13.05-.25.1-.38.14-.61.23-.89.95-.58,1.53Z"/>
        <path class="cls-2" d="M225.02,126.83c-1.19.45-2.66,1.02-4.37,1.69-.37.15-.53.59-.33.94,1.29,2.29,2.71,5.89,3.35,8.37.13.51.69.79,1.18.58,1.65-.71,3.05-1.32,4.19-1.83.77-.34,1.55-.69,2.32-1.03.72-.32,1.09-1.12.88-1.87-.61-2.15-1.7-4.92-2.76-7-.38-.74-1.26-1.07-2.03-.77s-1.62.62-2.43.93Z"/>
        <path class="cls-24" d="M2.84,219.32s-4.28,1.68-2.33,5.63c1.49,3.03,6.08.98,6.22.93,46.29-17.49,180.39-71.37,216.69-86.85.29-.12.45-.43.37-.74-.59-2.51-2.13-6.49-3.52-8.92-.19-.33-.59-.47-.94-.33-36.78,14.49-171.35,70.07-216.48,90.27Z"/>
        <path class="cls-1" d="M234.78,123.75c1.23,2.33,2.52,5.67,3.1,7.98.11.43.58.66.99.48,11.71-5.25,23.36-10.63,34.9-16.27-.6-1.88-1.47-4.04-2.34-5.79-.06-.12-.2-.17-.32-.13-12.09,4.12-24.09,8.49-36.05,13-.3.11-.43.46-.28.74Z"/>
        <path class="cls-11" d="M232.21,125.38c1.04,2.04,2.1,4.74,2.72,6.86.24.81,1.13,1.22,1.9.88.03-.01.06-.03.1-.04.68-.3,1.04-1.05.84-1.77-.57-2.07-1.61-4.8-2.67-6.92-.33-.66-1.11-.97-1.8-.7-.17.06-.33.13-.5.19-.6.23-.88.93-.59,1.51Z"/>
        <path class="cls-3" d="M302.59,99.31c-2.98,1.61-21.9,3.51-30.63,9.42-.41.28-.48,1.52-.26,1.97.78,1.64,1.53,3.55,2.07,5.24,2.56,2.71,25.91-12,28.7-15.13.18-.21,2.52-2.32,1.75-3.09,0,0,.11.65-1.63,1.59Z"/>
        <g>
          <path class="cls-18" d="M271.43,110.15c2.81-5.54,31.04-9.34,31.99-11.16"/>
          <path class="cls-17" d="M271.58,110.52c2.85-5.16,31.19-9.7,31.89-11.61"/>
          <path class="cls-16" d="M271.73,110.9c2.89-4.79,31.33-10.06,31.79-12.07"/>
          <path class="cls-4" d="M271.87,111.27c2.92-4.41,31.47-10.43,31.69-12.52"/>
          <path class="cls-19" d="M272.02,111.65c2.96-4.04,31.61-10.79,31.6-12.98"/>
          <path class="cls-10" d="M272.17,112.02c3-3.66,31.75-11.15,31.5-13.43"/>
          <path class="cls-20" d="M272.32,112.4c3.04-3.29,31.89-11.51,31.4-13.88"/>
          <path class="cls-7" d="M272.46,112.77c3.07-2.91,32.03-11.87,31.3-14.34"/>
          <path class="cls-8" d="M272.61,113.15c3.11-2.53,32.17-12.23,31.21-14.79"/>
          <path class="cls-13" d="M272.76,113.52c3.15-2.16,32.31-12.59,31.11-15.25"/>
          <path class="cls-22" d="M272.91,113.9c3.19-1.78,32.46-12.96,31.01-15.7"/>
          <path class="cls-6" d="M273.06,114.27c3.22-1.41,32.6-13.32,30.91-16.15"/>
          <path class="cls-5" d="M273.2,114.65c3.26-1.03,32.74-13.68,30.82-16.61"/>
          <path class="cls-14" d="M273.35,115.02c3.3-.66,32.88-14.04,30.72-17.06"/>
          <path class="cls-15" d="M273.5,115.39c3.34-.28,33.02-14.4,30.62-17.52"/>
          <path class="cls-21" d="M273.65,115.77c3.37.1,33.16-14.76,30.53-17.97"/>
          <path class="cls-12" d="M273.79,116.14c3.41.47,33.3-15.12,30.43-18.43"/>
        </g>
      </g>
      <g class="cls-28">
        <path class="cls-26" d="M281,63.83l.11-.12c-.18.35.32.37.21.49-.19-.03-.39-.14-.32-.37Z"/>
        <g>
          <path class="cls-26" d="M299.47,86.03l.29-.32c.54.13.3.72.35.98-.18.2-.09.66-.52.48-.47-.29-.34-.75-.13-1.15Z"/>
          <path class="cls-26" d="M298.05,77.31c-.73-.08.53-1.06-.63-1.24-.27.05-.16.66-.59.49-1.52-1.39-4.14-1.58-6.26-1.83.45-.17.53-.98,1.14-1.01.99-.12,2.61,1,2.85-.62.63-1.41,2.04-2.47,3.51-2.95.79-2.14-2.27-2.66-1.63-4.88.41-.29.91-.27,1.34-.1,1.17.49,1.32,2.01,2.59,2.23.29-.47.41-1.09.94-1.35,1.59-.45,3.24-1.29,4.57-1.54.15.72-.4,1.48-.06,2.07.53-.25,1.02.57,1.45-.14.58.09.57.82.59,1.28.78.2,1.67-2.22,1.92-.81.55.28-.35.71-.42.94-.16-.07-.39-.06-.54-.05-.38,1.71-1.52,3.02-1.94,4.69,1.12.95,2.69.19,4.06.78-.29.32-1.07.05-1.52.3l-.8.96c.94,1.22-.33,2.05-.01,3.15-.27-.1-.6-.55-.99-.61-.72-.74-1,.7-1.75.31-.44.48-.1,1.31-.22,1.93.59.4.51,1.13,1.14,1.41.37.56-.6.33-.7.68-.78-1.08-1.23-2.59-2.45-3.27-.51.71-.61-.7-1.03.08v.73c-.21-.18-.44-.25-.66,0-.06.46-.11,1-.05,1.5-.24-.14-.52-.55-.94-.42l-.42.86c.11-.93-.15-1.76-.76-2.38-.42.06-.31.74-.51.71.03-.19.16-.66-.04-.84-.94.39-2.09,1.32-2.36,2.25.14-.31-.27-.1-.39-.21.49-1.02,1.25-2.01,1.55-3.06Z"/>
          <path class="cls-26" d="M278.79,58.87c-.37-1.36.48-2.05,1.44-2.94.73.08,1.64-.26,2.23.06-.23.97,1.58,1.08.58,1.93.9.38-.1,1.16-.35,1.67-.44.56-1.2.67-1.81.69-.39-.14-.71-.43-1.2-.29-.25-.37-.17-1.26-.89-1.11Z"/>
          <path class="cls-23" d="M280.06,59c.42.02.21.34.06.5-.32-.22.37-.32-.06-.5Z"/>
          <path class="cls-23" d="M280.6,58.98c.6.47.64-.37,1.2-.59-.42.13-.34.05-.59-.24.41-.21.59.32.68-.26-.04.04-.37-.48-.66-.09-.03-.69,1.22-.21,1.2-.59-.33.28-.28.55-.46.9-.03.27.36.25.48.44-.42-.02-.53.18-.62.68.07-.08.06-.31-.05-.34.04.11-.14.24-.22.32-.12-.03.07-.08.03-.19-.66-.16-.33.44-.35.71-.08-.07-.02-.46-.41-.52-.35-.1-.18.28-.33.36l.09-.58Z"/>
          <path class="cls-23" d="M280.47,58.64c-.11.12-.27.05-.3.17.33-.44-.56-.44.05-.62-.46.1-.6-.55-.9-.38l.33-.44c.08.07.04.11,0,.23.35.02.28-.63.01-.65h.73c.11-.04-.42-.01-.22.25.66.16.24-.59.35-.78.44.33,1.02.57,1.38.01-.33.44-.4.52-.76.99-.5.06.24-.59-.33-.45l-.1.27c0-.08.03-.12,0-.15-.1.35-.52.41-.31.82.42-.13.35.1.74.16-.56-.59-.82.5-.73.95-.09-.23.34-.13.06-.39Z"/>
          <path class="cls-26" d="M279.71,57.94l.27-.05-.27.05Z"/>
          <polygon class="cls-26" points="282.02 58.3 281.82 58.77 281.69 58.66 282.02 58.3"/>
          <path class="cls-26" d="M307.15,81.9l.09-.5-.09.5Z"/>
          <path class="cls-23" d="M282.32,58.06c.77.04-.54-.05.21-.47.02.46.63.28.03.69l-.24-.22Z"/>
          <path class="cls-26" d="M307.46,79.24c.14-.39.95-.08.63.28-.22.24-.8.15-.63-.28Z"/>
          <path class="cls-26" d="M269.44,43.47c-.03-.61-.98-1.26-.65-1.77.35.1.57-.14.59-.49-.13-.34-.59-.4-.57-.82,1.23-.71.52-1.14,1.44-2.14-.1-.53-.8-.66-1.27-.86.18-.28.31.14.5.09-.93-1.07-2.4-1.39-3.48-2.38.27.1.48-.44.44-.48l2.55,1.31c2.29-1.21,3.35-3.18,4.24-5.6.32-.67-1.09-1.14-.1-1.49,1.36.36,1.03,2.49,2.34,2.58,1.44-.45,3.2-.53,4.38-.69.93.27-.51,1.52.83,1.5.18-.2.28-.55.63-.6.25.45-.56,1.17.22,1.52.42.02.5-.71.98-.27.25.53-.77.69-.29,1.28.21,1.22,1.03-.08,1.52.43-.02.35-.39.67-.69.84.06.42.09,1.26.46,1.75.3-.17.8-.23,1.11-.16-.36.63-1.29,1.09-1.45,1.98.07.8.92-.12.91.69-.37.25-1.11.09-1.4.56l.32,1.1c-1.5,1.72-3.58,2.23-4.84,4.16-1.34.1-2.54.76-3.62,1.39-.18-.53-.27-.99-.86-1.15-.34.13-.72.22-1.06.35-.28-.18-.14-.57-.49-.67l-.83.27c-.22-.57-.21-1.22-.72-1.54-.36-.41-.77.04-1.14.13-.2-.26-.06-.57,0-.81Z"/>
          <path class="cls-26" d="M314.03,82.01c.23-.01.58.17.67.39-.22.24-.69-.05-.67-.39Z"/>
          <path class="cls-26" d="M282.69,47.23c-.62-.2,0-.81-.43-1.06.58-.72-.3-1.6.71-2.14.56-1.1,1.47.17,2.11-.86.87.65,2.6.69,2.68,2.45.46.86-1.07,1.08-.08,1.77-.31.01-.73,0-1.02.31-.18.2.03.69-.27.78-.54-.05-1.24-.33-1.44.37-.22-.57-.75-.47-1.2-.22.37-1.13-1.36-.29-1.06-1.41Z"/>
          <rect class="cls-23" x="284.06" y="47.52" width=".27" height=".05" transform="translate(57.22 225.05) rotate(-47.52)"/>
          <path class="cls-23" d="M284.81,47.55c.08-.73.28.18.64-.3-.64.37.31.06.14.57-.45.1-.09-.3-.44-.4l-.48.44.1-.35.04.04Z"/>
          <polygon class="cls-23" points="283.85 46.52 283.9 46.79 283.78 46.68 283.85 46.52"/>
          <path class="cls-23" d="M283.45,45.43c.19-.12.15,0,.2.18l-.2-.18Z"/>
          <polygon class="cls-23" points="285.99 47.23 285.63 47.06 285.98 47.08 285.99 47.23"/>
          <polygon class="cls-23" points="286.02 46.39 285.96 46.77 285.95 46.47 286.02 46.39"/>
          <path class="cls-23" d="M286.33,46.37l.03-.27-.03.27Z"/>
          <path class="cls-23" d="M285.49,45.53l.34-.05-.34.05Z"/>
          <path class="cls-23" d="M285.94,45.28l.06-.31-.06.31Z"/>
          <path class="cls-26" d="M301.06,43.77c.35.1.92.04.83.54-.06.39-.55.52-.83.34-.28-.26-.34-.75,0-.88Z"/>
          <path class="cls-26" d="M302.33,41.33c.98-1.23-.65-2.58-.26-4.05.24-.66.93.11,1.28-.44-.24-.22-.37-.56-.61-.7.3-.09.9.38,1.14-.2.25-.51.18-1.24.15-1.77,1-.77,3.38,1.04,3.09-1.29.25.37.04,1,.47,1.17.65,0,.76-1.8,1.57-.84.01.23.06.5.36.41.73,0,.49-1.17,1.1-1.05.12.92.91,1.57.49,2.51.22.64,1.09.33,1.41.55.76.62-.48,1.4.09,2.14.73,0,1.62.31,2.08.94-.95.23-.3,1.05-.24,1.47-1.52.3-.37,2.16-1.58,2.52.24.14.66.16.56.51-.57.14-.92-.84-1.46-.09-.14.39-.87.31-.81.88-.03.27.63.43.26.68-.82-.31-1.87.2-2.78.39-.57.06-.42-.9-1.06-.45-.18.28.07.73-.34.94-1.34-.86-2.72-2.64-4.72-2.71-.37-.48-.39-1.02-.22-1.52Z"/>
          <g>
            <path class="cls-26" d="M291.66,52.56c.24-.59.5-.94,1.14-1.09.49-.14.75.47,1.23.18-.21.39.45.56.42.9-.02.5.05,1.07-.43,1.44-.61.18-1.51.6-1.96-.03-.44-.4-.31-.94-.41-1.4Z"/>
            <path class="cls-23" d="M293.16,53.41c.31.14.29.41.06.57-.29-.49-.53.25-.82-.23.14-.31.64-.37.75-.34Z"/>
            <path class="cls-23" d="M292.47,53.37l.23-.09-.23.09Z"/>
            <path class="cls-23" d="M292.79,51.97l-.06.31.11-.04c-.08-.07-.37.32-.6.33.18-.2.03-1.08.55-.6Z"/>
            <path class="cls-23" d="M293.97,52.61c-.07.08-.91.27-1.01-.26.42.82.4-.52.9-.35l-.26.28c.68-.26.33.52.46.79-.04-.04,0-.08-.04-.11-.19.05-.34.21-.29.4-.04.04-.19-.03-.11.12-.48-.36.25-.43.35-.86Z"/>
            <path class="cls-23" d="M294.08,53.37l.12.19c-.16-.07-.26.2-.38.02l.26-.2Z"/>
          </g>
        </g>
      </g>
      <g class="cls-28">
        <path class="cls-26" d="M370.95,73.22l-.02-.15c.14.34.46,0,.48.14-.14.12-.33.2-.46,0Z"/>
        <g>
          <path class="cls-26" d="M398,73.47l-.05-.4c.42-.31.69.22.91.34.03.25.42.46.03.66-.49.16-.74-.21-.9-.6Z"/>
          <path class="cls-26" d="M390.91,69.2c-.5.47-.44-1.02-1.27-.3-.13.22.37.52-.01.72-1.91.24-3.64,2-5.1,3.36.15-.43-.38-.98-.03-1.43.51-.78,2.3-1.26,1.28-2.41-.63-1.3-.53-2.95.02-4.3-1.06-1.86-3.28,0-4.47-1.79.04-.47.36-.81.74-1.02,1.06-.54,2.24.28,3.16-.5-.16-.49-.53-.96-.39-1.49.64-1.41,1.04-3.1,1.67-4.2.61.33.81,1.18,1.44,1.3.14-.53,1.03-.39.78-1.12.42-.36.93.09,1.27.35.61-.44-.58-2.54.58-1.86.53-.22.29.68.42.87-.14.07-.28.24-.37.35.99,1.31,1.24,2.91,2.17,4.23,1.35-.22,1.77-1.81,3.02-2.43.05.4-.62.79-.71,1.27l.2,1.15c1.44.07,1.26,1.48,2.24,1.92-.24.13-.76.1-1.03.34-.96.07-.11,1.14-.84,1.44.08.61.88.86,1.24,1.33.64-.18,1.12.32,1.69.04.62.07-.12.63.06.91-1.24-.1-2.6-.69-3.82-.23.2.79-.87,0-.57.79l.52.45c-.25.03-.44.16-.4.46.3.32.65.69,1.04.94-.25.08-.71.04-.87.42l.36.82c-.59-.64-1.35-.95-2.16-.9-.21.33.34.67.2.79-.12-.14-.37-.52-.62-.48-.29.91-.32,2.29.18,3.05-.14-.29-.24.13-.39.15-.43-.97-.68-2.11-1.25-2.96Z"/>
          <path class="cls-26" d="M366.06,71.8c-1.2-.56-1.17-1.59-1.23-2.81.5-.47.8-1.33,1.39-1.56.56.75,1.73-.48,1.73.75.82-.41.76.77.98,1.26.13.65-.25,1.26-.6,1.71-.33.2-.74.25-.94.68-.42-.05-1-.64-1.34-.04Z"/>
          <path class="cls-23" d="M366.93,70.97c.27-.29.36.06.39.26-.35.1,0-.46-.39-.26Z"/>
          <path class="cls-23" d="M367.23,70.57c.7-.14.12-.68.31-1.22-.16.38-.17.28-.53.27.1-.42.59-.23.23-.64,0,.05-.57-.03-.46.42-.51-.4.59-1,.31-1.22,0,.41.22.53.37.87.18.18.4-.1.6-.08-.27.29-.19.49.11.86-.01-.1-.18-.23-.28-.17.11.04.08.25.09.35-.09.06-.01-.1-.12-.14-.52.37.11.5.29.68-.1.01-.34-.26-.62-.02-.28.19.09.3.06.45l-.36-.41Z"/>
          <path class="cls-23" d="M366.91,70.46c.02.15-.13.22-.06.32-.11-.5-.65.13-.41-.41-.21.38-.76.1-.82.41l-.11-.5c.1-.01.11.04.17.13.23-.23-.28-.58-.46-.4l.45-.52c.04-.11-.27.29.04.3.52-.37-.27-.53-.35-.72.5-.11,1.03-.39.85-.98.11.5.13.6.25,1.15-.26.39-.27-.53-.52-.04l.13.24c-.06-.04-.06-.1-.11-.09.19.28-.02.62.4.72.16-.38.28-.19.56-.43-.76.05-.14.89.24,1.1-.21-.08.11-.32-.24-.28Z"/>
          <path class="cls-26" d="M365.96,70.58l.12-.22-.12.22Z"/>
          <polygon class="cls-26" points="367.62 69.14 367.83 69.58 367.67 69.6 367.62 69.14"/>
          <path class="cls-26" d="M399.7,65.48l-.3-.37.3.37Z"/>
          <path class="cls-23" d="M367.62,68.78c.5-.52-.36.35-.21-.43.34.26.58-.28.51.4l-.3.04Z"/>
          <path class="cls-26" d="M397.98,63.65c-.2-.33.52-.73.58-.28.04.3-.38.66-.58.28Z"/>
          <path class="cls-26" d="M349.4,69.15c-.45-.35-1.49-.07-1.66-.61.28-.19.25-.49.01-.72-.32-.11-.64.18-.93-.09.24-1.31-.49-1.06-.65-2.32-.44-.25-.95.17-1.38.38-.09-.3.29-.14.37-.3-1.33.02-2.45.87-3.81,1.05.24-.13-.03-.61-.08-.6l2.48-1.03c.52-2.37-.24-4.32-1.43-6.42-.28-.63-1.47.08-1.13-.83,1.08-.75,2.4.77,3.26-.11.55-1.3,1.56-2.6,2.16-3.55.75-.5.78,1.28,1.57.31-.03-.25-.22-.54-.05-.81.47.09.5,1.11,1.22.77.27-.29-.2-.79.4-.87.53.14.02.97.74.98,1,.59.57-.79,1.23-.82.23.23.24.69.18,1,.33.21.96.7,1.53.73.06-.31.32-.71.55-.89.23.64,0,1.59.54,2.23.62.43.47-.73,1.04-.23-.05.42-.61.85-.45,1.34l.98.44c.32,2.11-.58,3.91.04,5.98-.74,1.02-.99,2.28-1.2,3.43-.49-.19-.87-.4-1.34-.09-.11.32-.27.65-.39.97-.29.09-.49-.24-.77-.06l-.31.76c-.54-.19-1-.59-1.54-.42-.51.01-.44.57-.6.9-.31-.01-.45-.3-.57-.49Z"/>
          <path class="cls-26" d="M403.95,60.64c.13-.17.47-.32.69-.24.04.3-.45.47-.69.24Z"/>
          <path class="cls-26" d="M360.1,61.96c-.52.32-.57-.49-1.01-.33-.16-.85-1.33-.75-1.1-1.81-.44-1.07,1.01-.95.66-2.03.99-.23,2.07-1.44,3.37-.43.89.19.13,1.42,1.22,1.12-.18.23-.45.52-.39.92.03.25.51.4.39.67-.36.35-.99.69-.61,1.25-.54-.19-.79.25-.88.73-.58-.95-1.02.8-1.65-.1Z"/>
          <rect class="cls-23" x="361.22" y="60.95" width=".05" height=".25" transform="translate(-4.82 45.99) rotate(-7.24)"/>
          <path class="cls-23" d="M361.62,60.64c-.47-.5.29-.09.17-.64-.12.68.23-.18.49.25-.21.38-.27-.12-.55.07l.03.61-.19-.28h.05Z"/>
          <polygon class="cls-23" points="360.3 60.71 360.52 60.83 360.37 60.85 360.3 60.71"/>
          <path class="cls-23" d="M359.28,60.32c.02-.21.09-.11.25-.03l-.25.03Z"/>
          <polygon class="cls-23" points="362.11 59.61 361.77 59.75 361.99 59.52 362.11 59.61"/>
          <polygon class="cls-23" points="361.53 59.07 361.77 59.34 361.54 59.17 361.53 59.07"/>
          <path class="cls-23" d="M361.7,58.84l-.18-.18.18.18Z"/>
          <path class="cls-23" d="M360.59,58.93l.17-.28-.17.28Z"/>
          <path class="cls-23" d="M360.68,58.46l-.18-.23.18.23Z"/>
          <path class="cls-26" d="M368.76,46.74c.28-.19.59-.64.89-.27.24.28.04.71-.26.8-.35.04-.74-.21-.63-.53Z"/>
          <path class="cls-26" d="M367.79,44.35c-.29-1.45-2.24-1.1-3.05-2.27-.33-.57.64-.59.46-1.18-.3.04-.62-.07-.87,0,.12-.27.82-.41.55-.94-.21-.48-.78-.87-1.17-1.18.05-1.18,2.79-1.79.95-2.99.42.05.74.57,1.12.37.4-.46-.82-1.64.35-1.63.17.13.39.26.51-.01.45-.52-.54-1.06-.08-1.42.73.47,1.68.3,2.09,1.17.59.23.9-.57,1.25-.67.9-.17.71,1.19,1.59,1.23.45-.52,1.21-.97,1.93-.91-.41.82.57.85.9,1.06-.71,1.27,1.32,1.57.85,2.66.25-.08.52-.37.71-.09-.25.49-1.16.15-.95.99.2.33-.31.81.14,1.11.18.18.69-.19.64.23-.72.4-.99,1.46-1.41,2.23-.3.45-.9-.24-.96.48.09.3.56.39.46.81-1.43.44-3.54.35-4.8,1.74-.57-.03-.96-.34-1.22-.77Z"/>
          <g>
            <path class="cls-26" d="M369.35,58.78c-.27-.53-.37-.92-.08-1.47.2-.44.79-.25.87-.78.15.39.67.02.9.24.35.31.79.62.76,1.18-.24.54-.48,1.44-1.21,1.38-.55.07-.86-.35-1.25-.56Z"/>
            <path class="cls-23" d="M370.87,58.23c.29-.14.47.04.45.3-.52-.09-.14.53-.66.44-.14-.29.12-.68.21-.74Z"/>
            <path class="cls-23" d="M370.42,58.69l.08-.21-.08.21Z"/>
            <path class="cls-23" d="M369.61,57.62l.18.23.04-.11c-.1.01,0,.46-.12.63-.03-.25-.75-.67-.1-.76Z"/>
            <path class="cls-23" d="M370.78,57.16c.01.1-.36.81-.8.56.84.2-.13-.6.3-.86l.04.35c.23-.64.57.08.84.15-.05,0-.06-.04-.11-.04-.08.16-.06.37.11.45,0,.05-.14.12.02.15-.55.12-.16-.44-.4-.77Z"/>
            <path class="cls-23" d="M371.4,57.54l.21.02c-.15.07-.01.31-.22.28v-.31Z"/>
          </g>
        </g>
      </g>
    </g>
  </g>
</svg>